<svg width="220" height="1099" viewBox="0 0 220 1099" fill="none" xmlns="http://www.w3.org/2000/svg">
<path d="M55.2449 1017.05V1021.31H62.1149V1025.27H55.2449V1029.89H63.0149V1034H50.1149V1012.94H63.0149V1017.05H55.2449ZM85.6354 1034H80.5054L71.9253 1021.01V1034H66.7953V1012.94H71.9253L80.5054 1025.99V1012.94H85.6354V1034ZM109.574 1012.94L102.104 1034H95.6839L88.2139 1012.94H93.6739L98.8939 1028.84L104.144 1012.94H109.574ZM117.298 1012.94V1034H112.168V1012.94H117.298ZM134.576 1030.28H126.716L125.456 1034H120.086L127.706 1012.94H133.646L141.266 1034H135.836L134.576 1030.28ZM133.256 1026.32L130.646 1018.61L128.066 1026.32H133.256ZM154.775 1034L150.395 1026.05H149.165V1034H144.035V1012.94H152.645C154.305 1012.94 155.715 1013.23 156.875 1013.81C158.055 1014.39 158.935 1015.19 159.515 1016.21C160.095 1017.21 160.385 1018.33 160.385 1019.57C160.385 1020.97 159.985 1022.22 159.185 1023.32C158.405 1024.42 157.245 1025.2 155.705 1025.66L160.565 1034H154.775ZM149.165 1022.42H152.345C153.285 1022.42 153.985 1022.19 154.445 1021.73C154.925 1021.27 155.165 1020.62 155.165 1019.78C155.165 1018.98 154.925 1018.35 154.445 1017.89C153.985 1017.43 153.285 1017.2 152.345 1017.2H149.165V1022.42Z" fill="white"/>
<rect width="220" height="150" rx="37" fill="#193094"/>
<path d="M54.6193 90.4545H52.858L49.2216 92.8693V94.6591L52.7727 92.3011H52.858V105H54.6193V90.4545ZM63.9162 90.4545H62.1548L58.5185 92.8693V94.6591L62.0696 92.3011H62.1548V105H63.9162V90.4545ZM73.2699 89.7727H71.7358L67.0483 107.188H68.5824L73.2699 89.7727ZM80.342 90.4545H78.5806L74.9442 92.8693V94.6591L78.4954 92.3011H78.5806V105H80.342V90.4545ZM89.2695 105.199C92.4798 105.199 94.3263 102.479 94.3263 97.7273C94.3263 93.0114 92.4513 90.2557 89.2695 90.2557C86.0877 90.2557 84.2127 93.0114 84.2127 97.7273C84.2127 102.479 86.0593 105.199 89.2695 105.199ZM89.2695 103.636C87.1531 103.636 85.9173 101.513 85.9173 97.7273C85.9173 93.9489 87.1673 91.7898 89.2695 91.7898C91.3718 91.7898 92.6218 93.9489 92.6218 97.7273C92.6218 101.513 91.386 103.636 89.2695 103.636ZM108.929 96.946H102.565V98.5085H108.929V96.946ZM122.588 90.4545H120.827L117.19 92.8693V94.6591L120.741 92.3011H120.827V105H122.588V90.4545ZM131.601 105.199C134.541 105.234 136.459 103.018 136.459 100.312C136.459 97.5 134.378 95.483 131.885 95.483C130.386 95.483 129.101 96.2145 128.305 97.4148H128.192C128.199 93.8707 129.577 91.8182 131.828 91.8182C133.362 91.8182 134.286 92.7841 134.612 94.0909H136.345C135.99 91.8324 134.271 90.2557 131.828 90.2557C128.554 90.2557 126.544 93.1534 126.544 98.2955C126.544 103.672 129.214 105.17 131.601 105.199ZM131.601 103.636C129.776 103.636 128.44 102.081 128.447 100.341C128.455 98.6009 129.854 97.0455 131.658 97.0455C133.44 97.0455 134.754 98.5085 134.754 100.312C134.754 102.159 133.384 103.636 131.601 103.636ZM144.422 89.7727H142.888L138.201 107.188H139.735L144.422 89.7727ZM151.494 90.4545H149.733L146.097 92.8693V94.6591L149.648 92.3011H149.733V105H151.494V90.4545ZM160.422 105.199C163.632 105.199 165.479 102.479 165.479 97.7273C165.479 93.0114 163.604 90.2557 160.422 90.2557C157.24 90.2557 155.365 93.0114 155.365 97.7273C155.365 102.479 157.212 105.199 160.422 105.199ZM160.422 103.636C158.305 103.636 157.07 101.513 157.07 97.7273C157.07 93.9489 158.32 91.7898 160.422 91.7898C162.524 91.7898 163.774 93.9489 163.774 97.7273C163.774 101.513 162.538 103.636 160.422 103.636Z" fill="white"/>
<path d="M33.992 46.2H37.88V63H33.992V46.2ZM57.275 46.2V63H54.083L45.707 52.8V63H41.867V46.2H45.083L53.435 56.4V46.2H57.275ZM66.7698 63.288C65.4418 63.288 64.1538 63.112 62.9058 62.76C61.6738 62.392 60.6818 61.92 59.9298 61.344L61.2498 58.416C61.9698 58.944 62.8258 59.368 63.8178 59.688C64.8098 60.008 65.8018 60.168 66.7938 60.168C67.8978 60.168 68.7138 60.008 69.2418 59.688C69.7698 59.352 70.0338 58.912 70.0338 58.368C70.0338 57.968 69.8738 57.64 69.5538 57.384C69.2498 57.112 68.8498 56.896 68.3538 56.736C67.8738 56.576 67.2178 56.4 66.3858 56.208C65.1058 55.904 64.0578 55.6 63.2418 55.296C62.4258 54.992 61.7218 54.504 61.1298 53.832C60.5538 53.16 60.2658 52.264 60.2658 51.144C60.2658 50.168 60.5298 49.288 61.0578 48.504C61.5858 47.704 62.3778 47.072 63.4338 46.608C64.5058 46.144 65.8098 45.912 67.3458 45.912C68.4178 45.912 69.4658 46.04 70.4898 46.296C71.5138 46.552 72.4098 46.92 73.1778 47.4L71.9778 50.352C70.4258 49.472 68.8738 49.032 67.3218 49.032C66.2338 49.032 65.4258 49.208 64.8978 49.56C64.3858 49.912 64.1298 50.376 64.1298 50.952C64.1298 51.528 64.4258 51.96 65.0178 52.248C65.6258 52.52 66.5458 52.792 67.7778 53.064C69.0578 53.368 70.1058 53.672 70.9218 53.976C71.7378 54.28 72.4338 54.76 73.0098 55.416C73.6018 56.072 73.8978 56.96 73.8978 58.08C73.8978 59.04 73.6258 59.92 73.0818 60.72C72.5538 61.504 71.7538 62.128 70.6818 62.592C69.6098 63.056 68.3058 63.288 66.7698 63.288ZM84.5945 63.288C82.8825 63.288 81.3305 62.92 79.9385 62.184C78.5625 61.432 77.4745 60.4 76.6745 59.088C75.8905 57.76 75.4985 56.264 75.4985 54.6C75.4985 52.936 75.8905 51.448 76.6745 50.136C77.4745 48.808 78.5625 47.776 79.9385 47.04C81.3305 46.288 82.8905 45.912 84.6185 45.912C86.0745 45.912 87.3865 46.168 88.5545 46.68C89.7385 47.192 90.7305 47.928 91.5305 48.888L89.0345 51.192C87.8985 49.88 86.4905 49.224 84.8105 49.224C83.7705 49.224 82.8425 49.456 82.0265 49.92C81.2105 50.368 80.5705 51 80.1065 51.816C79.6585 52.632 79.4345 53.56 79.4345 54.6C79.4345 55.64 79.6585 56.568 80.1065 57.384C80.5705 58.2 81.2105 58.84 82.0265 59.304C82.8425 59.752 83.7705 59.976 84.8105 59.976C86.4905 59.976 87.8985 59.312 89.0345 57.984L91.5305 60.288C90.7305 61.264 89.7385 62.008 88.5545 62.52C87.3705 63.032 86.0505 63.288 84.5945 63.288ZM104.86 63L101.62 58.32H101.428H98.0441V63H94.1561V46.2H101.428C102.916 46.2 104.204 46.448 105.292 46.944C106.396 47.44 107.244 48.144 107.836 49.056C108.428 49.968 108.724 51.048 108.724 52.296C108.724 53.544 108.42 54.624 107.812 55.536C107.22 56.432 106.372 57.12 105.268 57.6L109.036 63H104.86ZM104.788 52.296C104.788 51.352 104.484 50.632 103.876 50.136C103.268 49.624 102.38 49.368 101.212 49.368H98.0441V55.224H101.212C102.38 55.224 103.268 54.968 103.876 54.456C104.484 53.944 104.788 53.224 104.788 52.296ZM111.805 46.2H115.693V63H111.805V46.2ZM127.72 63.288C126.008 63.288 124.456 62.92 123.064 62.184C121.688 61.432 120.6 60.4 119.8 59.088C119.016 57.76 118.624 56.264 118.624 54.6C118.624 52.936 119.016 51.448 119.8 50.136C120.6 48.808 121.688 47.776 123.064 47.04C124.456 46.288 126.016 45.912 127.744 45.912C129.2 45.912 130.512 46.168 131.68 46.68C132.864 47.192 133.856 47.928 134.656 48.888L132.16 51.192C131.024 49.88 129.616 49.224 127.936 49.224C126.896 49.224 125.968 49.456 125.152 49.92C124.336 50.368 123.696 51 123.232 51.816C122.784 52.632 122.56 53.56 122.56 54.6C122.56 55.64 122.784 56.568 123.232 57.384C123.696 58.2 124.336 58.84 125.152 59.304C125.968 59.752 126.896 59.976 127.936 59.976C129.616 59.976 131.024 59.312 132.16 57.984L134.656 60.288C133.856 61.264 132.864 62.008 131.68 62.52C130.496 63.032 129.176 63.288 127.72 63.288ZM126.424 68.568C126.008 68.568 125.6 68.52 125.2 68.424C124.8 68.344 124.464 68.224 124.192 68.064L124.768 66.456C125.28 66.696 125.8 66.816 126.328 66.816C127.16 66.816 127.576 66.56 127.576 66.048C127.576 65.584 127.184 65.352 126.4 65.352H125.584L126.208 62.808H128.2L127.864 64.2C128.568 64.28 129.088 64.496 129.424 64.848C129.776 65.216 129.952 65.664 129.952 66.192C129.952 66.928 129.632 67.504 128.992 67.92C128.352 68.352 127.496 68.568 126.424 68.568ZM145.066 63.288C143.322 63.288 141.746 62.912 140.338 62.16C138.946 61.408 137.85 60.376 137.05 59.064C136.266 57.736 135.874 56.248 135.874 54.6C135.874 52.952 136.266 51.472 137.05 50.16C137.85 48.832 138.946 47.792 140.338 47.04C141.746 46.288 143.322 45.912 145.066 45.912C146.81 45.912 148.378 46.288 149.77 47.04C151.162 47.792 152.258 48.832 153.058 50.16C153.858 51.472 154.258 52.952 154.258 54.6C154.258 56.248 153.858 57.736 153.058 59.064C152.258 60.376 151.162 61.408 149.77 62.16C148.378 62.912 146.81 63.288 145.066 63.288ZM145.066 59.976C146.058 59.976 146.954 59.752 147.754 59.304C148.554 58.84 149.178 58.2 149.626 57.384C150.09 56.568 150.322 55.64 150.322 54.6C150.322 53.56 150.09 52.632 149.626 51.816C149.178 51 148.554 50.368 147.754 49.92C146.954 49.456 146.058 49.224 145.066 49.224C144.074 49.224 143.178 49.456 142.378 49.92C141.578 50.368 140.946 51 140.482 51.816C140.034 52.632 139.81 53.56 139.81 54.6C139.81 55.64 140.034 56.568 140.482 57.384C140.946 58.2 141.578 58.84 142.378 59.304C143.178 59.752 144.074 59.976 145.066 59.976ZM146.866 44.904C146.434 44.904 146.05 44.824 145.714 44.664C145.394 44.488 145.034 44.256 144.634 43.968C144.378 43.776 144.162 43.632 143.986 43.536C143.826 43.44 143.666 43.392 143.506 43.392C143.17 43.392 142.898 43.512 142.69 43.752C142.482 43.976 142.37 44.304 142.354 44.736H140.458C140.49 43.664 140.754 42.816 141.25 42.192C141.762 41.552 142.434 41.232 143.266 41.232C143.682 41.232 144.05 41.32 144.37 41.496C144.706 41.656 145.082 41.888 145.498 42.192C145.754 42.384 145.962 42.528 146.122 42.624C146.298 42.72 146.466 42.768 146.626 42.768C146.946 42.768 147.21 42.656 147.418 42.432C147.642 42.192 147.762 41.872 147.778 41.472H149.674C149.642 42.512 149.37 43.344 148.858 43.968C148.362 44.592 147.698 44.904 146.866 44.904ZM170.188 59.88V63H157.18V46.2H169.876V49.32H161.044V52.968H168.844V55.992H161.044V59.88H170.188ZM178.801 63.288C177.473 63.288 176.185 63.112 174.937 62.76C173.705 62.392 172.713 61.92 171.961 61.344L173.281 58.416C174.001 58.944 174.857 59.368 175.849 59.688C176.841 60.008 177.833 60.168 178.825 60.168C179.929 60.168 180.745 60.008 181.273 59.688C181.801 59.352 182.065 58.912 182.065 58.368C182.065 57.968 181.905 57.64 181.585 57.384C181.281 57.112 180.881 56.896 180.385 56.736C179.905 56.576 179.249 56.4 178.417 56.208C177.137 55.904 176.089 55.6 175.273 55.296C174.457 54.992 173.753 54.504 173.161 53.832C172.585 53.16 172.297 52.264 172.297 51.144C172.297 50.168 172.561 49.288 173.089 48.504C173.617 47.704 174.409 47.072 175.465 46.608C176.537 46.144 177.841 45.912 179.377 45.912C180.449 45.912 181.497 46.04 182.521 46.296C183.545 46.552 184.441 46.92 185.209 47.4L184.009 50.352C182.457 49.472 180.905 49.032 179.353 49.032C178.265 49.032 177.457 49.208 176.929 49.56C176.417 49.912 176.161 50.376 176.161 50.952C176.161 51.528 176.457 51.96 177.049 52.248C177.657 52.52 178.577 52.792 179.809 53.064C181.089 53.368 182.137 53.672 182.953 53.976C183.769 54.28 184.465 54.76 185.041 55.416C185.633 56.072 185.929 56.96 185.929 58.08C185.929 59.04 185.657 59.92 185.113 60.72C184.585 61.504 183.785 62.128 182.713 62.592C181.641 63.056 180.337 63.288 178.801 63.288Z" fill="white"/>
<rect y="191" width="220" height="150" rx="37" fill="#193094"/>
<path d="M54.25 296.199C57.4602 296.199 59.3068 293.479 59.3068 288.727C59.3068 284.011 57.4318 281.256 54.25 281.256C51.0682 281.256 49.1932 284.011 49.1932 288.727C49.1932 293.479 51.0398 296.199 54.25 296.199ZM54.25 294.636C52.1335 294.636 50.8977 292.513 50.8977 288.727C50.8977 284.949 52.1477 282.79 54.25 282.79C56.3523 282.79 57.6023 284.949 57.6023 288.727C57.6023 292.513 56.3665 294.636 54.25 294.636ZM62.0057 296H71.1818V294.438H64.4205V294.324L67.6875 290.83C70.1875 288.152 70.9261 286.902 70.9261 285.29C70.9261 283.045 69.108 281.256 66.5511 281.256C64.0014 281.256 62.0625 282.989 62.0625 285.545H63.7386C63.7386 283.891 64.8111 282.79 66.4943 282.79C68.071 282.79 69.2784 283.756 69.2784 285.29C69.2784 286.632 68.4901 287.626 66.8068 289.466L62.0057 294.722V296ZM79.2855 280.773H77.7514L73.0639 298.188H74.598L79.2855 280.773ZM86.3576 281.455H84.5962L80.9599 283.869V285.659L84.511 283.301H84.5962V296H86.3576V281.455ZM95.6545 281.455H93.8931L90.2567 283.869V285.659L93.8079 283.301H93.8931V296H95.6545V281.455ZM111.741 287.946H105.377V289.509H111.741V287.946ZM120.287 296H129.463V294.438H122.702V294.324L125.969 290.83C128.469 288.152 129.207 286.902 129.207 285.29C129.207 283.045 127.389 281.256 124.832 281.256C122.283 281.256 120.344 282.989 120.344 285.545H122.02C122.02 283.891 123.092 282.79 124.776 282.79C126.352 282.79 127.56 283.756 127.56 285.29C127.56 286.632 126.771 287.626 125.088 289.466L120.287 294.722V296ZM131.743 293.017H138.589V296H140.266V293.017H142.254V291.455H140.266V281.455H138.135L131.743 291.568V293.017ZM138.589 291.455H133.646V291.341L138.476 283.699H138.589V291.455ZM150.086 280.773H148.552L143.865 298.188H145.399L150.086 280.773ZM157.158 281.455H155.397L151.761 283.869V285.659L155.312 283.301H155.397V296H157.158V281.455ZM166.455 281.455H164.694L161.058 283.869V285.659L164.609 283.301H164.694V296H166.455V281.455Z" fill="white"/>
<path d="M39 251.88V255H25.992V238.2H38.688V241.32H29.856V244.968H37.656V247.992H29.856V251.88H39ZM57.5016 238.2V255H54.3096L45.9336 244.8V255H42.0936V238.2H45.3096L53.6616 248.4V238.2H57.5016ZM64.9564 241.368H59.5804V238.2H74.2204V241.368H68.8444V255H64.9564V241.368ZM87.0163 255L83.7763 250.32H83.5843H80.2003V255H76.3123V238.2H83.5843C85.0723 238.2 86.3603 238.448 87.4483 238.944C88.5523 239.44 89.4003 240.144 89.9923 241.056C90.5843 241.968 90.8803 243.048 90.8803 244.296C90.8803 245.544 90.5763 246.624 89.9683 247.536C89.3763 248.432 88.5283 249.12 87.4243 249.6L91.1923 255H87.0163ZM86.9443 244.296C86.9443 243.352 86.6403 242.632 86.0323 242.136C85.4243 241.624 84.5363 241.368 83.3683 241.368H80.2003V247.224H83.3683C84.5363 247.224 85.4243 246.968 86.0323 246.456C86.6403 245.944 86.9443 245.224 86.9443 244.296ZM106.969 251.88V255H93.9608V238.2H106.657V241.32H97.8248V244.968H105.625V247.992H97.8248V251.88H106.969ZM125.98 238.2L118.708 255H114.868L107.62 238.2H111.82L116.932 250.2L122.116 238.2H125.98ZM127.383 238.2H131.271V255H127.383V238.2ZM140.778 255.288C139.45 255.288 138.162 255.112 136.914 254.76C135.682 254.392 134.69 253.92 133.938 253.344L135.258 250.416C135.978 250.944 136.834 251.368 137.826 251.688C138.818 252.008 139.81 252.168 140.802 252.168C141.906 252.168 142.722 252.008 143.25 251.688C143.778 251.352 144.042 250.912 144.042 250.368C144.042 249.968 143.882 249.64 143.562 249.384C143.258 249.112 142.858 248.896 142.362 248.736C141.882 248.576 141.226 248.4 140.394 248.208C139.114 247.904 138.066 247.6 137.25 247.296C136.434 246.992 135.73 246.504 135.138 245.832C134.562 245.16 134.274 244.264 134.274 243.144C134.274 242.168 134.538 241.288 135.066 240.504C135.594 239.704 136.386 239.072 137.442 238.608C138.514 238.144 139.818 237.912 141.354 237.912C142.426 237.912 143.474 238.04 144.498 238.296C145.522 238.552 146.418 238.92 147.186 239.4L145.986 242.352C144.434 241.472 142.882 241.032 141.33 241.032C140.242 241.032 139.434 241.208 138.906 241.56C138.394 241.912 138.138 242.376 138.138 242.952C138.138 243.528 138.434 243.96 139.026 244.248C139.634 244.52 140.554 244.792 141.786 245.064C143.066 245.368 144.114 245.672 144.93 245.976C145.746 246.28 146.442 246.76 147.018 247.416C147.61 248.072 147.906 248.96 147.906 250.08C147.906 251.04 147.634 251.92 147.09 252.72C146.562 253.504 145.762 254.128 144.69 254.592C143.618 255.056 142.314 255.288 140.778 255.288ZM153.808 241.368H148.432V238.2H163.072V241.368H157.696V255H153.808V241.368ZM175.384 251.4H167.584L166.096 255H162.112L169.6 238.2H173.44L180.952 255H176.872L175.384 251.4ZM174.16 248.448L171.496 242.016L168.832 248.448H174.16ZM188.215 255.288C186.887 255.288 185.599 255.112 184.351 254.76C183.119 254.392 182.127 253.92 181.375 253.344L182.695 250.416C183.415 250.944 184.271 251.368 185.263 251.688C186.255 252.008 187.247 252.168 188.239 252.168C189.343 252.168 190.159 252.008 190.687 251.688C191.215 251.352 191.479 250.912 191.479 250.368C191.479 249.968 191.319 249.64 190.999 249.384C190.695 249.112 190.295 248.896 189.799 248.736C189.319 248.576 188.663 248.4 187.831 248.208C186.551 247.904 185.503 247.6 184.687 247.296C183.871 246.992 183.167 246.504 182.575 245.832C181.999 245.16 181.711 244.264 181.711 243.144C181.711 242.168 181.975 241.288 182.503 240.504C183.031 239.704 183.823 239.072 184.879 238.608C185.951 238.144 187.255 237.912 188.791 237.912C189.863 237.912 190.911 238.04 191.935 238.296C192.959 238.552 193.855 238.92 194.623 239.4L193.423 242.352C191.871 241.472 190.319 241.032 188.767 241.032C187.679 241.032 186.871 241.208 186.343 241.56C185.831 241.912 185.575 242.376 185.575 242.952C185.575 243.528 185.871 243.96 186.463 244.248C187.071 244.52 187.991 244.792 189.223 245.064C190.503 245.368 191.551 245.672 192.367 245.976C193.183 246.28 193.879 246.76 194.455 247.416C195.047 248.072 195.343 248.96 195.343 250.08C195.343 251.04 195.071 251.92 194.527 252.72C193.999 253.504 193.199 254.128 192.127 254.592C191.055 255.056 189.751 255.288 188.215 255.288Z" fill="white"/>
<rect y="382" width="220" height="144" rx="37" fill="#193094"/>
<path d="M50.5057 496H59.6818V494.438H52.9205V494.324L56.1875 490.83C58.6875 488.152 59.4261 486.902 59.4261 485.29C59.4261 483.045 57.608 481.256 55.0511 481.256C52.5014 481.256 50.5625 482.989 50.5625 485.545H52.2386C52.2386 483.891 53.3111 482.79 54.9943 482.79C56.571 482.79 57.7784 483.756 57.7784 485.29C57.7784 486.632 56.9901 487.626 55.3068 489.466L50.5057 494.722V496ZM67.5298 496.199C70.3494 496.199 72.4446 494.43 72.4446 492.051C72.4446 490.205 71.3509 488.862 69.5185 488.557V488.443C70.9886 487.996 71.9048 486.788 71.9048 485.148C71.9048 483.088 70.2784 481.256 67.5866 481.256C65.0724 481.256 62.9844 482.804 62.8991 485.091H64.6037C64.6676 483.642 66.0455 482.79 67.5582 482.79C69.1634 482.79 70.2003 483.763 70.2003 485.233C70.2003 486.767 69 487.761 67.2741 487.761H66.1094V489.324H67.2741C69.483 489.324 70.7116 490.446 70.7116 492.051C70.7116 493.592 69.3693 494.636 67.5014 494.636C65.8182 494.636 64.483 493.77 64.3764 492.364H62.5866C62.6932 494.651 64.7102 496.199 67.5298 496.199ZM80.5199 480.773H78.9858L74.2983 498.188H75.8324L80.5199 480.773ZM87.592 481.455H85.8306L82.1942 483.869V485.659L85.7454 483.301H85.8306V496H87.592V481.455ZM96.8888 481.455H95.1275L91.4911 483.869V485.659L95.0423 483.301H95.1275V496H96.8888V481.455ZM112.975 487.946H106.612V489.509H112.975V487.946ZM126.635 481.455H124.874L121.237 483.869V485.659L124.788 483.301H124.874V496H126.635V481.455ZM135.932 481.455H134.17L130.534 483.869V485.659L134.085 483.301H134.17V496H135.932V481.455ZM145.286 480.773H143.751L139.064 498.188H140.598L145.286 480.773ZM152.358 481.455H150.596L146.96 483.869V485.659L150.511 483.301H150.596V496H152.358V481.455ZM156.541 496H165.717V494.438H158.956V494.324L162.223 490.83C164.723 488.152 165.461 486.902 165.461 485.29C165.461 483.045 163.643 481.256 161.086 481.256C158.537 481.256 156.598 482.989 156.598 485.545H158.274C158.274 483.891 159.346 482.79 161.029 482.79C162.606 482.79 163.814 483.756 163.814 485.29C163.814 486.632 163.025 487.626 161.342 489.466L156.541 494.722V496Z" fill="white"/>
<path d="M57.4134 416.368H52.0374V413.2H66.6774V416.368H61.3014V430H57.4134V416.368ZM79.4733 430L76.2333 425.32H76.0413H72.6573V430H68.7693V413.2H76.0413C77.5293 413.2 78.8173 413.448 79.9053 413.944C81.0093 414.44 81.8573 415.144 82.4493 416.056C83.0413 416.968 83.3373 418.048 83.3373 419.296C83.3373 420.544 83.0333 421.624 82.4253 422.536C81.8333 423.432 80.9853 424.12 79.8813 424.6L83.6493 430H79.4733ZM79.4013 419.296C79.4013 418.352 79.0973 417.632 78.4893 417.136C77.8813 416.624 76.9933 416.368 75.8253 416.368H72.6573V422.224H75.8253C76.9933 422.224 77.8813 421.968 78.4893 421.456C79.0973 420.944 79.4013 420.224 79.4013 419.296ZM97.4818 426.4H89.6818L88.1938 430H84.2098L91.6978 413.2H95.5378L103.05 430H98.9698L97.4818 426.4ZM96.2578 423.448L93.5938 417.016L90.9298 423.448H96.2578ZM104.793 413.2H108.681V430H104.793V413.2ZM128.076 413.2V430H124.884L116.508 419.8V430H112.668V413.2H115.884L124.236 423.4V413.2H128.076ZM145.059 426.88V430H132.051V413.2H144.747V416.32H135.915V419.968H143.715V422.992H135.915V426.88H145.059ZM161.16 426.88V430H148.152V413.2H160.848V416.32H152.016V419.968H159.816V422.992H152.016V426.88H161.16ZM81.2815 450.336H84.8335V457.152C83.9215 457.84 82.8655 458.368 81.6655 458.736C80.4655 459.104 79.2575 459.288 78.0415 459.288C76.2975 459.288 74.7295 458.92 73.3375 458.184C71.9455 457.432 70.8495 456.4 70.0495 455.088C69.2655 453.76 68.8735 452.264 68.8735 450.6C68.8735 448.936 69.2655 447.448 70.0495 446.136C70.8495 444.808 71.9535 443.776 73.3615 443.04C74.7695 442.288 76.3535 441.912 78.1135 441.912C79.5855 441.912 80.9215 442.16 82.1215 442.656C83.3215 443.152 84.3295 443.872 85.1455 444.816L82.6495 447.12C81.4495 445.856 80.0015 445.224 78.3055 445.224C77.2335 445.224 76.2815 445.448 75.4495 445.896C74.6175 446.344 73.9695 446.976 73.5055 447.792C73.0415 448.608 72.8095 449.544 72.8095 450.6C72.8095 451.64 73.0415 452.568 73.5055 453.384C73.9695 454.2 74.6095 454.84 75.4255 455.304C76.2575 455.752 77.2015 455.976 78.2575 455.976C79.3775 455.976 80.3855 455.736 81.2815 455.256V450.336ZM101.453 455.88V459H88.4451V442.2H101.141V445.32H92.3091V448.968H100.109V451.992H92.3091V455.88H101.453ZM115.251 459L112.011 454.32H111.819H108.435V459H104.547V442.2H111.819C113.307 442.2 114.595 442.448 115.683 442.944C116.787 443.44 117.635 444.144 118.227 445.056C118.819 445.968 119.115 447.048 119.115 448.296C119.115 449.544 118.811 450.624 118.203 451.536C117.611 452.432 116.763 453.12 115.659 453.6L119.427 459H115.251ZM115.179 448.296C115.179 447.352 114.875 446.632 114.267 446.136C113.659 445.624 112.771 445.368 111.603 445.368H108.435V451.224H111.603C112.771 451.224 113.659 450.968 114.267 450.456C114.875 449.944 115.179 449.224 115.179 448.296ZM133.259 455.4H125.459L123.971 459H119.987L127.475 442.2H131.315L138.827 459H134.747L133.259 455.4ZM132.035 452.448L129.371 446.016L126.707 452.448H132.035ZM140.57 442.2H144.458V455.832H152.882V459H140.57V442.2Z" fill="white"/>
<rect y="567" width="220" height="150" rx="37" fill="#193094"/>
<path d="M51.6193 668.455H49.858L46.2216 670.869V672.659L49.7727 670.301H49.858V683H51.6193V668.455ZM55.4616 680.017H62.3082V683H63.9844V680.017H65.973V678.455H63.9844V668.455H61.8537L55.4616 678.568V680.017ZM62.3082 678.455H57.3651V678.341L62.1946 670.699H62.3082V678.455ZM73.805 667.773H72.271L67.5835 685.188H69.1175L73.805 667.773ZM80.8771 668.455H79.1158L75.4794 670.869V672.659L79.0305 670.301H79.1158V683H80.8771V668.455ZM85.0604 683H94.2365V681.438H87.4751V681.324L90.7422 677.83C93.2422 675.152 93.9808 673.902 93.9808 672.29C93.9808 670.045 92.1626 668.256 89.6058 668.256C87.0561 668.256 85.1172 669.989 85.1172 672.545H86.7933C86.7933 670.891 87.8658 669.79 89.549 669.79C91.1257 669.79 92.3331 670.756 92.3331 672.29C92.3331 673.632 91.5447 674.626 89.8615 676.466L85.0604 681.722V683ZM109.073 674.946H102.71V676.509H109.073V674.946ZM122.363 683.199C125.574 683.199 127.42 680.479 127.42 675.727C127.42 671.011 125.545 668.256 122.363 668.256C119.181 668.256 117.306 671.011 117.306 675.727C117.306 680.479 119.153 683.199 122.363 683.199ZM122.363 681.636C120.247 681.636 119.011 679.513 119.011 675.727C119.011 671.949 120.261 669.79 122.363 669.79C124.466 669.79 125.716 671.949 125.716 675.727C125.716 679.513 124.48 681.636 122.363 681.636ZM134.75 668.256C131.795 668.22 129.892 670.443 129.892 673.114C129.892 675.926 131.966 677.943 134.466 677.943C135.971 677.943 137.25 677.205 138.045 676.011H138.159C138.159 679.591 136.767 681.636 134.522 681.636C132.988 681.636 132.051 680.67 131.738 679.335H130.005C130.346 681.636 132.079 683.199 134.522 683.199C137.789 683.199 139.806 680.301 139.806 675.131C139.806 669.79 137.136 668.284 134.75 668.256ZM134.75 669.818C136.568 669.818 137.903 671.381 137.903 673.085C137.903 674.818 136.483 676.381 134.693 676.381C132.903 676.381 131.596 674.932 131.596 673.114C131.596 671.295 132.96 669.818 134.75 669.818ZM147.77 667.773H146.236L141.548 685.188H143.082L147.77 667.773ZM149.728 683H158.904V681.438H152.143V681.324L155.41 677.83C157.91 675.152 158.649 673.902 158.649 672.29C158.649 670.045 156.831 668.256 154.274 668.256C151.724 668.256 149.785 669.989 149.785 672.545H151.461C151.461 670.891 152.534 669.79 154.217 669.79C155.794 669.79 157.001 670.756 157.001 672.29C157.001 673.632 156.213 674.626 154.529 676.466L149.728 681.722V683ZM166.582 683.199C169.792 683.199 171.639 680.479 171.639 675.727C171.639 671.011 169.764 668.256 166.582 668.256C163.4 668.256 161.525 671.011 161.525 675.727C161.525 680.479 163.372 683.199 166.582 683.199ZM166.582 681.636C164.466 681.636 163.23 679.513 163.23 675.727C163.23 671.949 164.48 669.79 166.582 669.79C168.684 669.79 169.934 671.949 169.934 675.727C169.934 679.513 168.699 681.636 166.582 681.636Z" fill="white"/>
<path d="M57.4134 603.368H52.0374V600.2H66.6774V603.368H61.3014V617H57.4134V603.368ZM79.4733 617L76.2333 612.32H76.0413H72.6573V617H68.7693V600.2H76.0413C77.5293 600.2 78.8173 600.448 79.9053 600.944C81.0093 601.44 81.8573 602.144 82.4493 603.056C83.0413 603.968 83.3373 605.048 83.3373 606.296C83.3373 607.544 83.0333 608.624 82.4253 609.536C81.8333 610.432 80.9853 611.12 79.8813 611.6L83.6493 617H79.4733ZM79.4013 606.296C79.4013 605.352 79.0973 604.632 78.4893 604.136C77.8813 603.624 76.9933 603.368 75.8253 603.368H72.6573V609.224H75.8253C76.9933 609.224 77.8813 608.968 78.4893 608.456C79.0973 607.944 79.4013 607.224 79.4013 606.296ZM97.4818 613.4H89.6818L88.1938 617H84.2098L91.6978 600.2H95.5378L103.05 617H98.9698L97.4818 613.4ZM96.2578 610.448L93.5938 604.016L90.9298 610.448H96.2578ZM104.793 600.2H108.681V617H104.793V600.2ZM128.076 600.2V617H124.884L116.508 606.8V617H112.668V600.2H115.884L124.236 610.4V600.2H128.076ZM145.059 613.88V617H132.051V600.2H144.747V603.32H135.915V606.968H143.715V609.992H135.915V613.88H145.059ZM161.16 613.88V617H148.152V600.2H160.848V603.32H152.016V606.968H159.816V609.992H152.016V613.88H161.16ZM50.0078 642.88V646H36.9998V629.2H49.6958V632.32H40.8638V635.968H48.6638V638.992H40.8638V642.88H50.0078ZM58.6214 646.288C57.2934 646.288 56.0054 646.112 54.7574 645.76C53.5254 645.392 52.5334 644.92 51.7814 644.344L53.1014 641.416C53.8214 641.944 54.6774 642.368 55.6694 642.688C56.6614 643.008 57.6534 643.168 58.6454 643.168C59.7494 643.168 60.5654 643.008 61.0934 642.688C61.6214 642.352 61.8854 641.912 61.8854 641.368C61.8854 640.968 61.7254 640.64 61.4054 640.384C61.1014 640.112 60.7014 639.896 60.2054 639.736C59.7254 639.576 59.0694 639.4 58.2374 639.208C56.9574 638.904 55.9094 638.6 55.0934 638.296C54.2774 637.992 53.5734 637.504 52.9814 636.832C52.4054 636.16 52.1174 635.264 52.1174 634.144C52.1174 633.168 52.3814 632.288 52.9094 631.504C53.4374 630.704 54.2294 630.072 55.2854 629.608C56.3574 629.144 57.6614 628.912 59.1974 628.912C60.2694 628.912 61.3174 629.04 62.3414 629.296C63.3654 629.552 64.2614 629.92 65.0294 630.4L63.8294 633.352C62.2774 632.472 60.7254 632.032 59.1734 632.032C58.0854 632.032 57.2774 632.208 56.7494 632.56C56.2374 632.912 55.9814 633.376 55.9814 633.952C55.9814 634.528 56.2774 634.96 56.8694 635.248C57.4774 635.52 58.3974 635.792 59.6294 636.064C60.9094 636.368 61.9574 636.672 62.7734 636.976C63.5894 637.28 64.2854 637.76 64.8614 638.416C65.4534 639.072 65.7494 639.96 65.7494 641.08C65.7494 642.04 65.4774 642.92 64.9334 643.72C64.4054 644.504 63.6054 645.128 62.5334 645.592C61.4614 646.056 60.1574 646.288 58.6214 646.288ZM75.6781 629.2C77.1661 629.2 78.4541 629.448 79.5421 629.944C80.6461 630.44 81.4941 631.144 82.0861 632.056C82.6781 632.968 82.9741 634.048 82.9741 635.296C82.9741 636.528 82.6781 637.608 82.0861 638.536C81.4941 639.448 80.6461 640.152 79.5421 640.648C78.4541 641.128 77.1661 641.368 75.6781 641.368H72.2941V646H68.4061V629.2H75.6781ZM75.4621 638.2C76.6301 638.2 77.5181 637.952 78.1261 637.456C78.7341 636.944 79.0381 636.224 79.0381 635.296C79.0381 634.352 78.7341 633.632 78.1261 633.136C77.5181 632.624 76.6301 632.368 75.4621 632.368H72.2941V638.2H75.4621ZM98.7578 642.88V646H85.7498V629.2H98.4458V632.32H89.6138V635.968H97.4138V638.992H89.6138V642.88H98.7578ZM109.845 646.288C108.133 646.288 106.581 645.92 105.189 645.184C103.813 644.432 102.725 643.4 101.925 642.088C101.141 640.76 100.749 639.264 100.749 637.6C100.749 635.936 101.141 634.448 101.925 633.136C102.725 631.808 103.813 630.776 105.189 630.04C106.581 629.288 108.141 628.912 109.869 628.912C111.325 628.912 112.637 629.168 113.805 629.68C114.989 630.192 115.981 630.928 116.781 631.888L114.285 634.192C113.149 632.88 111.741 632.224 110.061 632.224C109.021 632.224 108.093 632.456 107.277 632.92C106.461 633.368 105.821 634 105.357 634.816C104.909 635.632 104.685 636.56 104.685 637.6C104.685 638.64 104.909 639.568 105.357 640.384C105.821 641.2 106.461 641.84 107.277 642.304C108.093 642.752 109.021 642.976 110.061 642.976C111.741 642.976 113.149 642.312 114.285 640.984L116.781 643.288C115.981 644.264 114.989 645.008 113.805 645.52C112.621 646.032 111.301 646.288 109.845 646.288ZM119.406 629.2H123.294V646H119.406V629.2ZM122.406 624.376H126.438L122.094 627.832H119.166L122.406 624.376ZM131.169 632.32V636.76H138.945V639.88H131.169V646H127.281V629.2H139.977V632.32H131.169ZM142.609 629.2H146.497V646H142.609V629.2ZM158.524 646.288C156.812 646.288 155.26 645.92 153.868 645.184C152.492 644.432 151.404 643.4 150.604 642.088C149.82 640.76 149.428 639.264 149.428 637.6C149.428 635.936 149.82 634.448 150.604 633.136C151.404 631.808 152.492 630.776 153.868 630.04C155.26 629.288 156.82 628.912 158.548 628.912C160.004 628.912 161.316 629.168 162.484 629.68C163.668 630.192 164.66 630.928 165.46 631.888L162.964 634.192C161.828 632.88 160.42 632.224 158.74 632.224C157.7 632.224 156.772 632.456 155.956 632.92C155.14 633.368 154.5 634 154.036 634.816C153.588 635.632 153.364 636.56 153.364 637.6C153.364 638.64 153.588 639.568 154.036 640.384C154.5 641.2 155.14 641.84 155.956 642.304C156.772 642.752 157.7 642.976 158.74 642.976C160.42 642.976 161.828 642.312 162.964 640.984L165.46 643.288C164.66 644.264 163.668 645.008 162.484 645.52C161.3 646.032 159.98 646.288 158.524 646.288ZM175.87 646.288C174.126 646.288 172.55 645.912 171.142 645.16C169.75 644.408 168.654 643.376 167.854 642.064C167.07 640.736 166.678 639.248 166.678 637.6C166.678 635.952 167.07 634.472 167.854 633.16C168.654 631.832 169.75 630.792 171.142 630.04C172.55 629.288 174.126 628.912 175.87 628.912C177.614 628.912 179.182 629.288 180.574 630.04C181.966 630.792 183.062 631.832 183.862 633.16C184.662 634.472 185.062 635.952 185.062 637.6C185.062 639.248 184.662 640.736 183.862 642.064C183.062 643.376 181.966 644.408 180.574 645.16C179.182 645.912 177.614 646.288 175.87 646.288ZM175.87 642.976C176.862 642.976 177.758 642.752 178.558 642.304C179.358 641.84 179.982 641.2 180.43 640.384C180.894 639.568 181.126 638.64 181.126 637.6C181.126 636.56 180.894 635.632 180.43 634.816C179.982 634 179.358 633.368 178.558 632.92C177.758 632.456 176.862 632.224 175.87 632.224C174.878 632.224 173.982 632.456 173.182 632.92C172.382 633.368 171.75 634 171.286 634.816C170.838 635.632 170.614 636.56 170.614 637.6C170.614 638.64 170.838 639.568 171.286 640.384C171.75 641.2 172.382 641.84 173.182 642.304C173.982 642.752 174.878 642.976 175.87 642.976Z" fill="white"/>
<rect y="758" width="220" height="150" rx="37" fill="#193094"/>
<path d="M87.8652 875.199C91.0755 875.199 92.9221 872.479 92.9221 867.727C92.9221 863.011 91.0471 860.256 87.8652 860.256C84.6834 860.256 82.8084 863.011 82.8084 867.727C82.8084 872.479 84.655 875.199 87.8652 875.199ZM87.8652 873.636C85.7488 873.636 84.513 871.513 84.513 867.727C84.513 863.949 85.763 861.79 87.8652 861.79C89.9675 861.79 91.2175 863.949 91.2175 867.727C91.2175 871.513 89.9817 873.636 87.8652 873.636ZM100.536 875.199C103.355 875.199 105.45 873.43 105.45 871.051C105.45 869.205 104.357 867.862 102.524 867.557V867.443C103.994 866.996 104.911 865.788 104.911 864.148C104.911 862.088 103.284 860.256 100.593 860.256C98.0783 860.256 95.9902 861.804 95.905 864.091H97.6096C97.6735 862.642 99.0513 861.79 100.564 861.79C102.169 861.79 103.206 862.763 103.206 864.233C103.206 865.767 102.006 866.761 100.28 866.761H99.1152V868.324H100.28C102.489 868.324 103.718 869.446 103.718 871.051C103.718 872.592 102.375 873.636 100.507 873.636C98.824 873.636 97.4888 872.77 97.3823 871.364H95.5925C95.699 873.651 97.7161 875.199 100.536 875.199ZM113.526 859.773H111.992L107.304 877.188H108.838L113.526 859.773ZM120.598 860.455H118.836L115.2 862.869V864.659L118.751 862.301H118.836V875H120.598V860.455ZM124.781 875H133.957V873.438H127.196V873.324L130.463 869.83C132.963 867.152 133.702 865.902 133.702 864.29C133.702 862.045 131.883 860.256 129.327 860.256C126.777 860.256 124.838 861.989 124.838 864.545H126.514C126.514 862.891 127.586 861.79 129.27 861.79C130.846 861.79 132.054 862.756 132.054 864.29C132.054 865.632 131.265 866.626 129.582 868.466L124.781 873.722V875Z" fill="white"/>
<path d="M45.5319 809L42.2919 804.32H42.0999H38.7159V809H34.8279V792.2H42.0999C43.5879 792.2 44.8759 792.448 45.9639 792.944C47.0679 793.44 47.9159 794.144 48.5079 795.056C49.0999 795.968 49.3959 797.048 49.3959 798.296C49.3959 799.544 49.0919 800.624 48.4839 801.536C47.8919 802.432 47.0439 803.12 45.9399 803.6L49.7079 809H45.5319ZM45.4599 798.296C45.4599 797.352 45.1559 796.632 44.5479 796.136C43.9399 795.624 43.0519 795.368 41.8839 795.368H38.7159V801.224H41.8839C43.0519 801.224 43.9399 800.968 44.5479 800.456C45.1559 799.944 45.4599 799.224 45.4599 798.296ZM65.4844 805.88V809H52.4764V792.2H65.1724V795.32H56.3404V798.968H64.1404V801.992H56.3404V805.88H65.4844ZM74.0979 809.288C72.7699 809.288 71.4819 809.112 70.2339 808.76C69.0019 808.392 68.0099 807.92 67.2579 807.344L68.5779 804.416C69.2979 804.944 70.1539 805.368 71.1459 805.688C72.1379 806.008 73.1299 806.168 74.1219 806.168C75.2259 806.168 76.0419 806.008 76.5699 805.688C77.0979 805.352 77.3619 804.912 77.3619 804.368C77.3619 803.968 77.2019 803.64 76.8819 803.384C76.5779 803.112 76.1779 802.896 75.6819 802.736C75.2019 802.576 74.5459 802.4 73.7139 802.208C72.4339 801.904 71.3859 801.6 70.5699 801.296C69.7539 800.992 69.0499 800.504 68.4579 799.832C67.8819 799.16 67.5939 798.264 67.5939 797.144C67.5939 796.168 67.8579 795.288 68.3859 794.504C68.9139 793.704 69.7059 793.072 70.7619 792.608C71.8339 792.144 73.1379 791.912 74.6739 791.912C75.7459 791.912 76.7939 792.04 77.8179 792.296C78.8419 792.552 79.7379 792.92 80.5059 793.4L79.3059 796.352C77.7539 795.472 76.2019 795.032 74.6499 795.032C73.5619 795.032 72.7539 795.208 72.2259 795.56C71.7139 795.912 71.4579 796.376 71.4579 796.952C71.4579 797.528 71.7539 797.96 72.3459 798.248C72.9539 798.52 73.8739 798.792 75.1059 799.064C76.3859 799.368 77.4339 799.672 78.2499 799.976C79.0659 800.28 79.7619 800.76 80.3379 801.416C80.9299 802.072 81.2259 802.96 81.2259 804.08C81.2259 805.04 80.9539 805.92 80.4099 806.72C79.8819 807.504 79.0819 808.128 78.0099 808.592C76.9379 809.056 75.6339 809.288 74.0979 809.288ZM91.3466 809.288C88.9466 809.288 87.0746 808.624 85.7306 807.296C84.4026 805.968 83.7386 804.072 83.7386 801.608V792.2H87.6266V801.464C87.6266 804.472 88.8746 805.976 91.3706 805.976C92.5866 805.976 93.5146 805.616 94.1546 804.896C94.7946 804.16 95.1146 803.016 95.1146 801.464V792.2H98.9546V801.608C98.9546 804.072 98.2826 805.968 96.9386 807.296C95.6106 808.624 93.7466 809.288 91.3466 809.288ZM102.797 792.2H106.685V805.832H115.109V809H102.797V792.2ZM119.191 795.368H113.815V792.2H128.455V795.368H123.079V809H119.191V795.368ZM140.767 805.4H132.967L131.479 809H127.495L134.983 792.2H138.823L146.335 809H142.255L140.767 805.4ZM139.543 802.448L136.879 796.016L134.215 802.448H139.543ZM148.078 792.2H155.71C157.534 792.2 159.142 792.552 160.534 793.256C161.942 793.944 163.03 794.92 163.798 796.184C164.582 797.448 164.974 798.92 164.974 800.6C164.974 802.28 164.582 803.752 163.798 805.016C163.03 806.28 161.942 807.264 160.534 807.968C159.142 808.656 157.534 809 155.71 809H148.078V792.2ZM155.518 805.808C157.198 805.808 158.534 805.344 159.526 804.416C160.534 803.472 161.038 802.2 161.038 800.6C161.038 799 160.534 797.736 159.526 796.808C158.534 795.864 157.198 795.392 155.518 795.392H151.966V805.808H155.518ZM176.042 809.288C174.298 809.288 172.722 808.912 171.314 808.16C169.922 807.408 168.826 806.376 168.026 805.064C167.242 803.736 166.85 802.248 166.85 800.6C166.85 798.952 167.242 797.472 168.026 796.16C168.826 794.832 169.922 793.792 171.314 793.04C172.722 792.288 174.298 791.912 176.042 791.912C177.786 791.912 179.354 792.288 180.746 793.04C182.138 793.792 183.234 794.832 184.034 796.16C184.834 797.472 185.234 798.952 185.234 800.6C185.234 802.248 184.834 803.736 184.034 805.064C183.234 806.376 182.138 807.408 180.746 808.16C179.354 808.912 177.786 809.288 176.042 809.288ZM176.042 805.976C177.034 805.976 177.93 805.752 178.73 805.304C179.53 804.84 180.154 804.2 180.602 803.384C181.066 802.568 181.298 801.64 181.298 800.6C181.298 799.56 181.066 798.632 180.602 797.816C180.154 797 179.53 796.368 178.73 795.92C177.93 795.456 177.034 795.224 176.042 795.224C175.05 795.224 174.154 795.456 173.354 795.92C172.554 796.368 171.922 797 171.458 797.816C171.01 798.632 170.786 799.56 170.786 800.6C170.786 801.64 171.01 802.568 171.458 803.384C171.922 804.2 172.554 804.84 173.354 805.304C174.154 805.752 175.05 805.976 176.042 805.976ZM77.6573 824.32V828.76H85.4333V831.88H77.6573V838H73.7693V821.2H86.4653V824.32H77.6573ZM89.0975 821.2H92.9855V838H89.0975V821.2ZM112.38 821.2V838H109.188L100.812 827.8V838H96.9725V821.2H100.188L108.54 831.4V821.2H112.38ZM127.419 834.4H119.619L118.131 838H114.147L121.635 821.2H125.475L132.987 838H128.907L127.419 834.4ZM126.195 831.448L123.531 825.016L120.867 831.448H126.195ZM134.73 821.2H138.618V834.832H147.042V838H134.73V821.2Z" fill="white"/>
<rect y="949" width="220" height="150" rx="37" fill="#193094"/>
<path d="M81.418 1054C85.8498 1054 88.3498 1051.24 88.3498 1046.7C88.3498 1042.18 85.8498 1039.45 81.6168 1039.45H76.9293V1054H81.418ZM78.6907 1052.44V1041.02H81.5032C84.9123 1041.02 86.6452 1043.18 86.6452 1046.7C86.6452 1050.25 84.9123 1052.44 81.3043 1052.44H78.6907ZM95.793 1054C100.225 1054 102.725 1051.24 102.725 1046.7C102.725 1042.18 100.225 1039.45 95.9918 1039.45H91.3043V1054H95.793ZM93.0657 1052.44V1041.02H95.8782C99.2873 1041.02 101.02 1043.18 101.02 1046.7C101.02 1050.25 99.2873 1052.44 95.6793 1052.44H93.0657ZM109.793 1038.77H108.259L103.572 1056.19H105.106L109.793 1038.77ZM112.007 1039.45V1054H113.655V1042.95H113.797L118.343 1054H119.934L124.479 1042.95H124.621V1054H126.269V1039.45H124.167L119.223 1051.53H119.053L114.11 1039.45H112.007ZM129.8 1039.45V1054H131.448V1042.95H131.59L136.136 1054H137.727L142.272 1042.95H142.414V1054H144.062V1039.45H141.96L137.016 1051.53H136.846L131.903 1039.45H129.8Z" fill="white"/>
<path d="M53.556 1013.4H45.756L44.268 1017H40.284L47.772 1000.2H51.612L59.124 1017H55.044L53.556 1013.4ZM52.332 1010.45L49.668 1004.02L47.004 1010.45H52.332ZM60.867 1000.2H68.499C70.323 1000.2 71.931 1000.55 73.323 1001.26C74.731 1001.94 75.819 1002.92 76.587 1004.18C77.371 1005.45 77.763 1006.92 77.763 1008.6C77.763 1010.28 77.371 1011.75 76.587 1013.02C75.819 1014.28 74.731 1015.26 73.323 1015.97C71.931 1016.66 70.323 1017 68.499 1017H60.867V1000.2ZM68.307 1013.81C69.987 1013.81 71.323 1013.34 72.315 1012.42C73.323 1011.47 73.827 1010.2 73.827 1008.6C73.827 1007 73.323 1005.74 72.315 1004.81C71.323 1003.86 69.987 1003.39 68.307 1003.39H64.755V1013.81H68.307ZM95.9831 1017L95.9591 1006.92L91.0151 1015.22H89.2631L84.3431 1007.14V1017H80.6951V1000.2H83.9111L90.1991 1010.64L96.3911 1000.2H99.5831L99.6311 1017H95.9831ZM103.617 1000.2H107.505V1017H103.617V1000.2ZM117.012 1017.29C115.684 1017.29 114.396 1017.11 113.148 1016.76C111.916 1016.39 110.924 1015.92 110.172 1015.34L111.492 1012.42C112.212 1012.94 113.068 1013.37 114.06 1013.69C115.052 1014.01 116.044 1014.17 117.036 1014.17C118.14 1014.17 118.956 1014.01 119.484 1013.69C120.012 1013.35 120.276 1012.91 120.276 1012.37C120.276 1011.97 120.116 1011.64 119.796 1011.38C119.492 1011.11 119.092 1010.9 118.596 1010.74C118.116 1010.58 117.46 1010.4 116.628 1010.21C115.348 1009.9 114.3 1009.6 113.484 1009.3C112.668 1008.99 111.964 1008.5 111.372 1007.83C110.796 1007.16 110.508 1006.26 110.508 1005.14C110.508 1004.17 110.772 1003.29 111.3 1002.5C111.828 1001.7 112.62 1001.07 113.676 1000.61C114.748 1000.14 116.052 999.912 117.588 999.912C118.66 999.912 119.708 1000.04 120.732 1000.3C121.756 1000.55 122.652 1000.92 123.42 1001.4L122.22 1004.35C120.668 1003.47 119.116 1003.03 117.564 1003.03C116.476 1003.03 115.668 1003.21 115.14 1003.56C114.628 1003.91 114.372 1004.38 114.372 1004.95C114.372 1005.53 114.668 1005.96 115.26 1006.25C115.868 1006.52 116.788 1006.79 118.02 1007.06C119.3 1007.37 120.348 1007.67 121.164 1007.98C121.98 1008.28 122.676 1008.76 123.252 1009.42C123.844 1010.07 124.14 1010.96 124.14 1012.08C124.14 1013.04 123.868 1013.92 123.324 1014.72C122.796 1015.5 121.996 1016.13 120.924 1016.59C119.852 1017.06 118.548 1017.29 117.012 1017.29ZM132.317 1017.29C130.989 1017.29 129.701 1017.11 128.453 1016.76C127.221 1016.39 126.229 1015.92 125.477 1015.34L126.797 1012.42C127.517 1012.94 128.373 1013.37 129.365 1013.69C130.357 1014.01 131.349 1014.17 132.341 1014.17C133.445 1014.17 134.261 1014.01 134.789 1013.69C135.317 1013.35 135.581 1012.91 135.581 1012.37C135.581 1011.97 135.421 1011.64 135.101 1011.38C134.797 1011.11 134.397 1010.9 133.901 1010.74C133.421 1010.58 132.765 1010.4 131.933 1010.21C130.653 1009.9 129.605 1009.6 128.789 1009.3C127.973 1008.99 127.269 1008.5 126.677 1007.83C126.101 1007.16 125.813 1006.26 125.813 1005.14C125.813 1004.17 126.077 1003.29 126.605 1002.5C127.133 1001.7 127.925 1001.07 128.981 1000.61C130.053 1000.14 131.357 999.912 132.893 999.912C133.965 999.912 135.013 1000.04 136.037 1000.3C137.061 1000.55 137.957 1000.92 138.725 1001.4L137.525 1004.35C135.973 1003.47 134.421 1003.03 132.869 1003.03C131.781 1003.03 130.973 1003.21 130.445 1003.56C129.933 1003.91 129.677 1004.38 129.677 1004.95C129.677 1005.53 129.973 1005.96 130.565 1006.25C131.173 1006.52 132.093 1006.79 133.325 1007.06C134.605 1007.37 135.653 1007.67 136.469 1007.98C137.285 1008.28 137.981 1008.76 138.557 1009.42C139.149 1010.07 139.445 1010.96 139.445 1012.08C139.445 1013.04 139.173 1013.92 138.629 1014.72C138.101 1015.5 137.301 1016.13 136.229 1016.59C135.157 1017.06 133.853 1017.29 132.317 1017.29ZM153.165 1013.4H145.365L143.877 1017H139.893L147.381 1000.2H151.221L158.733 1017H154.653L153.165 1013.4ZM151.941 1010.45L149.277 1004.02L146.613 1010.45H151.941ZM151.101 998.904C150.669 998.904 150.285 998.824 149.949 998.664C149.629 998.488 149.269 998.256 148.869 997.968C148.613 997.776 148.397 997.632 148.221 997.536C148.061 997.44 147.901 997.392 147.741 997.392C147.405 997.392 147.133 997.512 146.925 997.752C146.717 997.976 146.605 998.304 146.589 998.736H144.693C144.725 997.664 144.989 996.816 145.485 996.192C145.997 995.552 146.669 995.232 147.501 995.232C147.917 995.232 148.285 995.32 148.605 995.496C148.941 995.656 149.317 995.888 149.733 996.192C149.989 996.384 150.197 996.528 150.357 996.624C150.533 996.72 150.701 996.768 150.861 996.768C151.181 996.768 151.445 996.656 151.653 996.432C151.877 996.192 151.997 995.872 152.013 995.472H153.909C153.877 996.512 153.605 997.344 153.093 997.968C152.597 998.592 151.933 998.904 151.101 998.904ZM168.378 1017.29C166.634 1017.29 165.058 1016.91 163.65 1016.16C162.258 1015.41 161.162 1014.38 160.362 1013.06C159.578 1011.74 159.186 1010.25 159.186 1008.6C159.186 1006.95 159.578 1005.47 160.362 1004.16C161.162 1002.83 162.258 1001.79 163.65 1001.04C165.058 1000.29 166.634 999.912 168.378 999.912C170.122 999.912 171.69 1000.29 173.082 1001.04C174.474 1001.79 175.57 1002.83 176.37 1004.16C177.17 1005.47 177.57 1006.95 177.57 1008.6C177.57 1010.25 177.17 1011.74 176.37 1013.06C175.57 1014.38 174.474 1015.41 173.082 1016.16C171.69 1016.91 170.122 1017.29 168.378 1017.29ZM168.378 1013.98C169.37 1013.98 170.266 1013.75 171.066 1013.3C171.866 1012.84 172.49 1012.2 172.938 1011.38C173.402 1010.57 173.634 1009.64 173.634 1008.6C173.634 1007.56 173.402 1006.63 172.938 1005.82C172.49 1005 171.866 1004.37 171.066 1003.92C170.266 1003.46 169.37 1003.22 168.378 1003.22C167.386 1003.22 166.49 1003.46 165.69 1003.92C164.89 1004.37 164.258 1005 163.794 1005.82C163.346 1006.63 163.122 1007.56 163.122 1008.6C163.122 1009.64 163.346 1010.57 163.794 1011.38C164.258 1012.2 164.89 1012.84 165.69 1013.3C166.49 1013.75 167.386 1013.98 168.378 1013.98Z" fill="white"/>
<path d="M110 145.5C107.5 145.5 105.5 147.5 105.5 150C105.5 152.5 107.5 154.5 110 154.5C112.5 154.5 114.5 152.5 114.5 150C114.5 147.5 112.5 145.5 110 145.5Z" fill="white"/>
<path d="M108.939 192.061C109.525 192.646 110.475 192.646 111.061 192.061L120.607 182.515C121.192 181.929 121.192 180.979 120.607 180.393C120.021 179.808 119.071 179.808 118.485 180.393L110 188.879L101.515 180.393C100.929 179.808 99.9792 179.808 99.3934 180.393C98.8076 180.979 98.8076 181.929 99.3934 182.515L108.939 192.061ZM107 150C107 148.328 108.328 147 110 147V144C106.672 144 104 146.672 104 150H107ZM110 147C111.672 147 113 148.328 113 150H116C116 146.672 113.328 144 110 144V147ZM113 150C113 151.672 111.672 153 110 153V156C113.328 156 116 153.328 116 150H113ZM110 153C108.328 153 107 151.672 107 150H104C104 153.328 106.672 156 110 156V153ZM108.5 154.5V191H111.5V154.5H108.5Z" fill="black"/>
<path d="M110 336.5C107.5 336.5 105.5 338.5 105.5 341C105.5 343.5 107.5 345.5 110 345.5C112.5 345.5 114.5 343.5 114.5 341C114.5 338.5 112.5 336.5 110 336.5Z" fill="white"/>
<path d="M108.939 383.061C109.525 383.646 110.475 383.646 111.061 383.061L120.607 373.515C121.192 372.929 121.192 371.979 120.607 371.393C120.021 370.808 119.071 370.808 118.485 371.393L110 379.879L101.515 371.393C100.929 370.808 99.9792 370.808 99.3934 371.393C98.8076 371.979 98.8076 372.929 99.3934 373.515L108.939 383.061ZM107 341C107 339.328 108.328 338 110 338V335C106.672 335 104 337.672 104 341H107ZM110 338C111.672 338 113 339.328 113 341H116C116 337.672 113.328 335 110 335V338ZM113 341C113 342.672 111.672 344 110 344V347C113.328 347 116 344.328 116 341H113ZM110 344C108.328 344 107 342.672 107 341H104C104 344.328 106.672 347 110 347V344ZM108.5 345.5V382H111.5V345.5H108.5Z" fill="black"/>
<path d="M110 521.5C107.5 521.5 105.5 523.5 105.5 526C105.5 528.5 107.5 530.5 110 530.5C112.5 530.5 114.5 528.5 114.5 526C114.5 523.5 112.5 521.5 110 521.5Z" fill="white"/>
<path d="M108.939 568.061C109.525 568.646 110.475 568.646 111.061 568.061L120.607 558.515C121.192 557.929 121.192 556.979 120.607 556.393C120.021 555.808 119.071 555.808 118.485 556.393L110 564.879L101.515 556.393C100.929 555.808 99.9792 555.808 99.3934 556.393C98.8076 556.979 98.8076 557.929 99.3934 558.515L108.939 568.061ZM107 526C107 524.328 108.328 523 110 523V520C106.672 520 104 522.672 104 526H107ZM110 523C111.672 523 113 524.328 113 526H116C116 522.672 113.328 520 110 520V523ZM113 526C113 527.672 111.672 529 110 529V532C113.328 532 116 529.328 116 526H113ZM110 529C108.328 529 107 527.672 107 526H104C104 529.328 106.672 532 110 532V529ZM108.5 530.5V567H111.5V530.5H108.5Z" fill="black"/>
<path d="M110 712.5C107.5 712.5 105.5 714.5 105.5 717C105.5 719.5 107.5 721.5 110 721.5C112.5 721.5 114.5 719.5 114.5 717C114.5 714.5 112.5 712.5 110 712.5Z" fill="white"/>
<path d="M108.939 759.061C109.525 759.646 110.475 759.646 111.061 759.061L120.607 749.515C121.192 748.929 121.192 747.979 120.607 747.393C120.021 746.808 119.071 746.808 118.485 747.393L110 755.879L101.515 747.393C100.929 746.808 99.9792 746.808 99.3934 747.393C98.8076 747.979 98.8076 748.929 99.3934 749.515L108.939 759.061ZM107 717C107 715.328 108.328 714 110 714V711C106.672 711 104 713.672 104 717H107ZM110 714C111.672 714 113 715.328 113 717H116C116 713.672 113.328 711 110 711V714ZM113 717C113 718.672 111.672 720 110 720V723C113.328 723 116 720.328 116 717H113ZM110 720C108.328 720 107 718.672 107 717H104C104 720.328 106.672 723 110 723V720ZM108.5 721.5V758H111.5V721.5H108.5Z" fill="black"/>
<path d="M110 903.5C107.5 903.5 105.5 905.5 105.5 908C105.5 910.5 107.5 912.5 110 912.5C112.5 912.5 114.5 910.5 114.5 908C114.5 905.5 112.5 903.5 110 903.5Z" fill="white"/>
<path d="M108.939 950.061C109.525 950.646 110.475 950.646 111.061 950.061L120.607 940.515C121.192 939.929 121.192 938.979 120.607 938.393C120.021 937.808 119.071 937.808 118.485 938.393L110 946.879L101.515 938.393C100.929 937.808 99.9792 937.808 99.3934 938.393C98.8076 938.979 98.8076 939.929 99.3934 940.515L108.939 950.061ZM107 908C107 906.328 108.328 905 110 905V902C106.672 902 104 904.672 104 908H107ZM110 905C111.672 905 113 906.328 113 908H116C116 904.672 113.328 902 110 902V905ZM113 908C113 909.672 111.672 911 110 911V914C113.328 914 116 911.328 116 908H113ZM110 911C108.328 911 107 909.672 107 908H104C104 911.328 106.672 914 110 914V911ZM108.5 912.5V949H111.5V912.5H108.5Z" fill="black"/>
</svg>
